<mxfile host="app.diagrams.net" modified="2024-04-04T09:17:36.637Z" agent="Mozilla/5.0 (Windows NT 10.0; Win64; x64) AppleWebKit/537.36 (KHTML, like Gecko) Chrome/122.0.0.0 Safari/537.36 OPR/108.0.0.0" etag="Bcri2bwi3oBkOekABw_q" version="24.0.7" type="device">
  <diagram name="Page-1" id="eYX73KBFbFHuoBDzjUOX">
    <mxGraphModel dx="1432" dy="821" grid="1" gridSize="10" guides="1" tooltips="1" connect="1" arrows="1" fold="1" page="1" pageScale="1" pageWidth="850" pageHeight="1100" math="0" shadow="0">
      <root>
        <mxCell id="0" />
        <mxCell id="1" parent="0" />
        <mxCell id="oiAVDx6I-l48m04ewLIp-8" style="edgeStyle=orthogonalEdgeStyle;rounded=0;orthogonalLoop=1;jettySize=auto;html=1;exitX=0.5;exitY=1;exitDx=0;exitDy=0;exitPerimeter=0;" edge="1" parent="1" source="oiAVDx6I-l48m04ewLIp-2" target="oiAVDx6I-l48m04ewLIp-3">
          <mxGeometry relative="1" as="geometry" />
        </mxCell>
        <mxCell id="oiAVDx6I-l48m04ewLIp-9" style="edgeStyle=orthogonalEdgeStyle;rounded=0;orthogonalLoop=1;jettySize=auto;html=1;exitX=0.5;exitY=1;exitDx=0;exitDy=0;exitPerimeter=0;" edge="1" parent="1" source="oiAVDx6I-l48m04ewLIp-2" target="oiAVDx6I-l48m04ewLIp-5">
          <mxGeometry relative="1" as="geometry" />
        </mxCell>
        <mxCell id="oiAVDx6I-l48m04ewLIp-10" style="edgeStyle=orthogonalEdgeStyle;rounded=0;orthogonalLoop=1;jettySize=auto;html=1;exitX=0.5;exitY=1;exitDx=0;exitDy=0;exitPerimeter=0;entryX=0.5;entryY=0;entryDx=0;entryDy=0;" edge="1" parent="1" source="oiAVDx6I-l48m04ewLIp-2" target="oiAVDx6I-l48m04ewLIp-6">
          <mxGeometry relative="1" as="geometry" />
        </mxCell>
        <mxCell id="oiAVDx6I-l48m04ewLIp-2" value="START" style="strokeWidth=2;html=1;shape=mxgraph.flowchart.terminator;whiteSpace=wrap;fontSize=17;" vertex="1" parent="1">
          <mxGeometry x="375" y="80" width="100" height="60" as="geometry" />
        </mxCell>
        <mxCell id="oiAVDx6I-l48m04ewLIp-24" style="edgeStyle=orthogonalEdgeStyle;rounded=0;orthogonalLoop=1;jettySize=auto;html=1;exitX=0.5;exitY=1;exitDx=0;exitDy=0;entryX=0.5;entryY=0;entryDx=0;entryDy=0;" edge="1" parent="1" source="oiAVDx6I-l48m04ewLIp-3" target="oiAVDx6I-l48m04ewLIp-21">
          <mxGeometry relative="1" as="geometry" />
        </mxCell>
        <mxCell id="oiAVDx6I-l48m04ewLIp-3" value="PRODUK" style="rounded=1;whiteSpace=wrap;html=1;fontSize=17;" vertex="1" parent="1">
          <mxGeometry x="225" y="210" width="120" height="60" as="geometry" />
        </mxCell>
        <mxCell id="oiAVDx6I-l48m04ewLIp-13" style="edgeStyle=orthogonalEdgeStyle;rounded=0;orthogonalLoop=1;jettySize=auto;html=1;exitX=0.5;exitY=1;exitDx=0;exitDy=0;entryX=0.5;entryY=0;entryDx=0;entryDy=0;" edge="1" parent="1" source="oiAVDx6I-l48m04ewLIp-4" target="oiAVDx6I-l48m04ewLIp-12">
          <mxGeometry relative="1" as="geometry" />
        </mxCell>
        <mxCell id="oiAVDx6I-l48m04ewLIp-4" value="HOME" style="rounded=1;whiteSpace=wrap;html=1;fontSize=17;" vertex="1" parent="1">
          <mxGeometry x="30" y="210" width="120" height="60" as="geometry" />
        </mxCell>
        <mxCell id="oiAVDx6I-l48m04ewLIp-31" style="edgeStyle=orthogonalEdgeStyle;rounded=0;orthogonalLoop=1;jettySize=auto;html=1;exitX=0.5;exitY=1;exitDx=0;exitDy=0;entryX=0.5;entryY=0;entryDx=0;entryDy=0;" edge="1" parent="1" source="oiAVDx6I-l48m04ewLIp-5" target="oiAVDx6I-l48m04ewLIp-27">
          <mxGeometry relative="1" as="geometry" />
        </mxCell>
        <mxCell id="oiAVDx6I-l48m04ewLIp-5" value="TENTANG KAMI" style="rounded=1;whiteSpace=wrap;html=1;fontSize=17;" vertex="1" parent="1">
          <mxGeometry x="420" y="210" width="160" height="60" as="geometry" />
        </mxCell>
        <mxCell id="oiAVDx6I-l48m04ewLIp-32" style="edgeStyle=orthogonalEdgeStyle;rounded=0;orthogonalLoop=1;jettySize=auto;html=1;exitX=0.5;exitY=1;exitDx=0;exitDy=0;entryX=0.5;entryY=0;entryDx=0;entryDy=0;" edge="1" parent="1" source="oiAVDx6I-l48m04ewLIp-6" target="oiAVDx6I-l48m04ewLIp-28">
          <mxGeometry relative="1" as="geometry" />
        </mxCell>
        <mxCell id="oiAVDx6I-l48m04ewLIp-6" value="KONTAK&amp;nbsp; KAMI" style="rounded=1;whiteSpace=wrap;html=1;fontSize=17;" vertex="1" parent="1">
          <mxGeometry x="660" y="210" width="160" height="60" as="geometry" />
        </mxCell>
        <mxCell id="oiAVDx6I-l48m04ewLIp-7" style="edgeStyle=orthogonalEdgeStyle;rounded=0;orthogonalLoop=1;jettySize=auto;html=1;exitX=0.5;exitY=1;exitDx=0;exitDy=0;exitPerimeter=0;entryX=0.567;entryY=0.017;entryDx=0;entryDy=0;entryPerimeter=0;" edge="1" parent="1" source="oiAVDx6I-l48m04ewLIp-2" target="oiAVDx6I-l48m04ewLIp-4">
          <mxGeometry relative="1" as="geometry" />
        </mxCell>
        <mxCell id="oiAVDx6I-l48m04ewLIp-15" style="edgeStyle=orthogonalEdgeStyle;rounded=0;orthogonalLoop=1;jettySize=auto;html=1;exitX=0.5;exitY=1;exitDx=0;exitDy=0;entryX=0.5;entryY=0;entryDx=0;entryDy=0;" edge="1" parent="1" source="oiAVDx6I-l48m04ewLIp-12" target="oiAVDx6I-l48m04ewLIp-14">
          <mxGeometry relative="1" as="geometry" />
        </mxCell>
        <mxCell id="oiAVDx6I-l48m04ewLIp-12" value="DESKRIPSI SINGKAT" style="rounded=1;whiteSpace=wrap;html=1;fontSize=17;" vertex="1" parent="1">
          <mxGeometry x="30" y="310" width="120" height="60" as="geometry" />
        </mxCell>
        <mxCell id="oiAVDx6I-l48m04ewLIp-18" style="edgeStyle=orthogonalEdgeStyle;rounded=0;orthogonalLoop=1;jettySize=auto;html=1;exitX=0.5;exitY=1;exitDx=0;exitDy=0;entryX=0.5;entryY=0;entryDx=0;entryDy=0;" edge="1" parent="1" source="oiAVDx6I-l48m04ewLIp-14" target="oiAVDx6I-l48m04ewLIp-16">
          <mxGeometry relative="1" as="geometry" />
        </mxCell>
        <mxCell id="oiAVDx6I-l48m04ewLIp-14" value="PREVIEW PRODUK" style="rounded=1;whiteSpace=wrap;html=1;fontSize=17;" vertex="1" parent="1">
          <mxGeometry x="30" y="410" width="120" height="60" as="geometry" />
        </mxCell>
        <mxCell id="oiAVDx6I-l48m04ewLIp-19" style="edgeStyle=orthogonalEdgeStyle;rounded=0;orthogonalLoop=1;jettySize=auto;html=1;exitX=0.5;exitY=1;exitDx=0;exitDy=0;entryX=0.5;entryY=0;entryDx=0;entryDy=0;" edge="1" parent="1" source="oiAVDx6I-l48m04ewLIp-16" target="oiAVDx6I-l48m04ewLIp-17">
          <mxGeometry relative="1" as="geometry" />
        </mxCell>
        <mxCell id="oiAVDx6I-l48m04ewLIp-16" value="TESTIMONI" style="rounded=1;whiteSpace=wrap;html=1;fontSize=17;" vertex="1" parent="1">
          <mxGeometry x="30" y="510" width="120" height="60" as="geometry" />
        </mxCell>
        <mxCell id="oiAVDx6I-l48m04ewLIp-17" value="KONTAK" style="rounded=1;whiteSpace=wrap;html=1;fontSize=17;" vertex="1" parent="1">
          <mxGeometry x="30" y="610" width="120" height="60" as="geometry" />
        </mxCell>
        <mxCell id="oiAVDx6I-l48m04ewLIp-25" style="edgeStyle=orthogonalEdgeStyle;rounded=0;orthogonalLoop=1;jettySize=auto;html=1;exitX=0.5;exitY=1;exitDx=0;exitDy=0;entryX=0.5;entryY=0;entryDx=0;entryDy=0;" edge="1" parent="1" source="oiAVDx6I-l48m04ewLIp-21" target="oiAVDx6I-l48m04ewLIp-22">
          <mxGeometry relative="1" as="geometry" />
        </mxCell>
        <mxCell id="oiAVDx6I-l48m04ewLIp-21" value="LIST MENU MAKANAN" style="rounded=1;whiteSpace=wrap;html=1;fontSize=17;" vertex="1" parent="1">
          <mxGeometry x="225" y="310" width="120" height="60" as="geometry" />
        </mxCell>
        <mxCell id="oiAVDx6I-l48m04ewLIp-26" style="edgeStyle=orthogonalEdgeStyle;rounded=0;orthogonalLoop=1;jettySize=auto;html=1;exitX=0.5;exitY=1;exitDx=0;exitDy=0;" edge="1" parent="1" source="oiAVDx6I-l48m04ewLIp-22" target="oiAVDx6I-l48m04ewLIp-23">
          <mxGeometry relative="1" as="geometry" />
        </mxCell>
        <mxCell id="oiAVDx6I-l48m04ewLIp-22" value="LIST MENU SNACK" style="rounded=1;whiteSpace=wrap;html=1;fontSize=17;" vertex="1" parent="1">
          <mxGeometry x="225" y="410" width="120" height="60" as="geometry" />
        </mxCell>
        <mxCell id="oiAVDx6I-l48m04ewLIp-23" value="LIST MENU MINUMAN" style="rounded=1;whiteSpace=wrap;html=1;fontSize=17;" vertex="1" parent="1">
          <mxGeometry x="225" y="510" width="120" height="60" as="geometry" />
        </mxCell>
        <mxCell id="oiAVDx6I-l48m04ewLIp-27" value="DESKRIPSI USAHA" style="rounded=1;whiteSpace=wrap;html=1;fontSize=17;" vertex="1" parent="1">
          <mxGeometry x="440" y="310" width="120" height="60" as="geometry" />
        </mxCell>
        <mxCell id="oiAVDx6I-l48m04ewLIp-33" style="edgeStyle=orthogonalEdgeStyle;rounded=0;orthogonalLoop=1;jettySize=auto;html=1;exitX=0.5;exitY=1;exitDx=0;exitDy=0;" edge="1" parent="1" source="oiAVDx6I-l48m04ewLIp-28" target="oiAVDx6I-l48m04ewLIp-29">
          <mxGeometry relative="1" as="geometry" />
        </mxCell>
        <mxCell id="oiAVDx6I-l48m04ewLIp-28" value="KOTAK SARAN" style="rounded=1;whiteSpace=wrap;html=1;fontSize=17;" vertex="1" parent="1">
          <mxGeometry x="680" y="310" width="120" height="60" as="geometry" />
        </mxCell>
        <mxCell id="oiAVDx6I-l48m04ewLIp-29" value="LOKASI USAHA (MAPS)" style="rounded=1;whiteSpace=wrap;html=1;fontSize=17;" vertex="1" parent="1">
          <mxGeometry x="670" y="410" width="140" height="60" as="geometry" />
        </mxCell>
        <mxCell id="oiAVDx6I-l48m04ewLIp-34" value="END" style="strokeWidth=2;html=1;shape=mxgraph.flowchart.terminator;whiteSpace=wrap;fontSize=17;" vertex="1" parent="1">
          <mxGeometry x="375" y="720" width="100" height="60" as="geometry" />
        </mxCell>
        <mxCell id="oiAVDx6I-l48m04ewLIp-35" style="edgeStyle=orthogonalEdgeStyle;rounded=0;orthogonalLoop=1;jettySize=auto;html=1;exitX=0.5;exitY=1;exitDx=0;exitDy=0;entryX=0.5;entryY=0;entryDx=0;entryDy=0;entryPerimeter=0;" edge="1" parent="1" source="oiAVDx6I-l48m04ewLIp-17" target="oiAVDx6I-l48m04ewLIp-34">
          <mxGeometry relative="1" as="geometry">
            <Array as="points">
              <mxPoint x="90" y="700" />
              <mxPoint x="425" y="700" />
            </Array>
          </mxGeometry>
        </mxCell>
        <mxCell id="oiAVDx6I-l48m04ewLIp-36" style="edgeStyle=orthogonalEdgeStyle;rounded=0;orthogonalLoop=1;jettySize=auto;html=1;exitX=0.5;exitY=1;exitDx=0;exitDy=0;entryX=0.5;entryY=0;entryDx=0;entryDy=0;entryPerimeter=0;" edge="1" parent="1" source="oiAVDx6I-l48m04ewLIp-23" target="oiAVDx6I-l48m04ewLIp-34">
          <mxGeometry relative="1" as="geometry">
            <Array as="points">
              <mxPoint x="285" y="700" />
              <mxPoint x="425" y="700" />
            </Array>
          </mxGeometry>
        </mxCell>
        <mxCell id="oiAVDx6I-l48m04ewLIp-37" style="edgeStyle=orthogonalEdgeStyle;rounded=0;orthogonalLoop=1;jettySize=auto;html=1;exitX=0.5;exitY=1;exitDx=0;exitDy=0;entryX=0.5;entryY=0;entryDx=0;entryDy=0;entryPerimeter=0;" edge="1" parent="1" source="oiAVDx6I-l48m04ewLIp-27" target="oiAVDx6I-l48m04ewLIp-34">
          <mxGeometry relative="1" as="geometry">
            <Array as="points">
              <mxPoint x="500" y="700" />
              <mxPoint x="425" y="700" />
            </Array>
          </mxGeometry>
        </mxCell>
        <mxCell id="oiAVDx6I-l48m04ewLIp-38" style="edgeStyle=orthogonalEdgeStyle;rounded=0;orthogonalLoop=1;jettySize=auto;html=1;exitX=0.5;exitY=1;exitDx=0;exitDy=0;entryX=0.5;entryY=0;entryDx=0;entryDy=0;entryPerimeter=0;" edge="1" parent="1" source="oiAVDx6I-l48m04ewLIp-29" target="oiAVDx6I-l48m04ewLIp-34">
          <mxGeometry relative="1" as="geometry">
            <Array as="points">
              <mxPoint x="740" y="700" />
              <mxPoint x="425" y="700" />
            </Array>
          </mxGeometry>
        </mxCell>
      </root>
    </mxGraphModel>
  </diagram>
</mxfile>
